<?xml version="1.0" encoding="utf-8"?>
<!-- Generator: Adobe Illustrator 16.0.3, SVG Export Plug-In . SVG Version: 6.00 Build 0)  -->
<!DOCTYPE svg PUBLIC "-//W3C//DTD SVG 1.1//EN" "http://www.w3.org/Graphics/SVG/1.1/DTD/svg11.dtd">
<svg version="1.1" id="Ebene_1" xmlns="http://www.w3.org/2000/svg" xmlns:xlink="http://www.w3.org/1999/xlink" x="0px" y="0px"
	 width="221px" height="221px" viewBox="0 0 221 221" enable-background="new 0 0 221 221" xml:space="preserve">
<g>
	<rect fill="#3D3D3D" width="221" height="221"/>
</g>
<text transform="matrix(1 0 0 1 17.2813 197.7227)" fill="#FFFFFF" font-family="'Calibri-Bold'" font-size="23.3815">Thema einreichen</text>
<g>
	<polygon fill-rule="evenodd" clip-rule="evenodd" fill="#FFFFFF" points="110.817,64.953 139.121,39.256 82.5,39.256 	"/>
</g>
<path fill-rule="evenodd" clip-rule="evenodd" fill="#FFFFFF" d="M133.644,71.949H76.85v67.922h67.922V83.079L133.644,71.949z
	 M90.383,76.454h24.718v14.764h7.334V76.454h5.303v18.385H90.383V76.454z M134.428,131.523h-48.09v-26.551h48.09V131.523z"/>
<g>
	<rect fill="#3D3D3D" width="221" height="221"/>
</g>
<text transform="matrix(1 0 0 1 17.2813 197.7227)" fill="#FFFFFF" font-family="'Calibri-Bold'" font-size="22">Thema einreichen</text>
<g>
	<polygon fill-rule="evenodd" clip-rule="evenodd" fill="#FFFFFF" points="110.817,64.953 139.121,39.256 82.5,39.256 	"/>
</g>
<path fill-rule="evenodd" clip-rule="evenodd" fill="#FFFFFF" d="M133.644,71.949H76.85v67.922h67.922V83.079L133.644,71.949z
	 M90.383,76.454h24.718v14.764h7.334V76.454h5.303v18.385H90.383V76.454z M134.428,131.523h-48.09v-26.551h48.09V131.523z"/>
</svg>
